# xmcd
#
# Track frame offsets:
# 150
# 18600
# 37008
# 63090
# 84990
# 98105
# 116031
# 133569
# 151127
# 176590
# 193047
# 208384
# 227775
# 258001
# 279360
# 298636
#
# Disc length: 4360 seconds
#
# Revision: 0
# Processed by: cddbd v1.5PL3 Copyright (c) Steve Scherf et al.
# Submitted via: Audion 3.0.2 (http://www.panic.com/audion/)
#
DISCID=de110610
DTITLE=Blues Paradise - Blues Rock_vol.6
DYEAR=1900
DGENRE=
TTITLE0=Gov't Mule_Rocking Horse
TTITLE1=The Alex Parche Band_Cool Running Man
TTITLE2=Warren Haynes_Power And The Gliry
TTITLE3=The Allman Brothers Band_Shine It On
TTITLE4=Big George And The Business_Long Black Train
TTITLE5=The Hoax_Headless Chicken
TTITLE6=Cub Coda_Pusherman Of Love
TTITLE7=Buddah Heads_Brother Cain
TTITLE8=Gov't Mule_Mule
TTITLE9=Warren Haynes_Kiss Tomorrow Good-Bye
TTITLE10=Big George And The Business_Thunderbolt
TTITLE11=The Alex Parche Band_Run For Cover
TTITLE12=The Allman Brothers Band_Gambler's Roll
TTITLE13=Buddah Heads_Dodge The Rain
TTITLE14=Sean Chambars_Mojo Down The Road
TTITLE15=Cub Coda_Fire and Brimstone
EXTD=
EXTT0=
EXTT1=
EXTT2=
EXTT3=
EXTT4=
EXTT5=
EXTT6=
EXTT7=
EXTT8=
EXTT9=
EXTT10=
EXTT11=
EXTT12=
EXTT13=
EXTT14=
EXTT15=
PLAYORDER=
